<svg xmlns="http://www.w3.org/2000/svg" viewBox="0 0 640 640" fill="none">
  <rect x="70" y="150" width="500" height="340" rx="28" fill="#fff" stroke="#dfe3f1" stroke-width="2"/>
  <rect x="70" y="150" width="500" height="54" rx="28" fill="#f1f3fa"/>
  <circle cx="108" cy="177" r="7" fill="#c9cfe6"/><circle cx="132" cy="177" r="7" fill="#c9cfe6"/><circle cx="156" cy="177" r="7" fill="#c9cfe6"/>
  <rect x="104" y="236" width="170" height="16" rx="8" fill="#0f1b4d"/>
  <rect x="104" y="266" width="250" height="10" rx="5" fill="#d6dbee"/>
  <rect x="104" y="288" width="210" height="10" rx="5" fill="#d6dbee"/>
  <rect x="104" y="324" width="104" height="36" rx="18" fill="#3b4de0"/>
  <rect x="380" y="232" width="150" height="128" rx="18" fill="#0f1b4d"/>
  <path d="M400 330l30-36 24 20 36-52" stroke="#8d9bff" stroke-width="6" stroke-linecap="round" stroke-linejoin="round"/>
  <rect x="104" y="388" width="130" height="68" rx="14" fill="#f1f3fa"/>
  <rect x="250" y="388" width="130" height="68" rx="14" fill="#e3e7f7"/>
  <rect x="396" y="388" width="134" height="68" rx="14" fill="#f1f3fa"/>
  <circle cx="520" cy="120" r="64" fill="#3b4de0"/>
  <circle cx="520" cy="120" r="64" fill="url(#g)"/>
  <defs><radialGradient id="g" cx=".3" cy=".3" r=".9"><stop stop-color="#8d9bff" stop-opacity=".7"/><stop offset="1" stop-color="#3b4de0" stop-opacity="0"/></radialGradient></defs>
</svg>
