<svg xmlns="http://www.w3.org/2000/svg" viewBox="0 0 800 600" fill="none">
  <defs>
    <linearGradient id="g" x1="0" y1="0" x2="1" y2="1"><stop stop-color="#12b5cb"/><stop offset="1" stop-color="#3b4de0"/></linearGradient>
    <linearGradient id="bg" x1="0" y1="0" x2="1" y2="1"><stop stop-color="#e6e9fc"/><stop offset="1" stop-color="#d9f3f8"/></linearGradient>
    <filter id="s" x="-20%" y="-20%" width="140%" height="160%"><feDropShadow dx="0" dy="20" stdDeviation="18" flood-color="#0f1b4d" flood-opacity=".25"/></filter>
  </defs>
  <rect width="800" height="600" rx="36" fill="url(#bg)"/>
  <circle cx="680" cy="90" r="120" fill="#3b4de0" fill-opacity=".12"/>
  <circle cx="90" cy="520" r="90" fill="#12b5cb" fill-opacity=".18"/>
  <g filter="url(#s)"><rect x="70" y="90" width="500" height="360" rx="22" fill="#0f1b4d"/></g>
  <rect x="70" y="90" width="500" height="44" rx="22" fill="#1b2a8a"/><rect x="70" y="112" width="500" height="22" fill="#1b2a8a"/>
  <circle cx="98" cy="112" r="6" fill="#12b5cb"/><circle cx="118" cy="112" r="6" fill="#8d9bff"/><circle cx="138" cy="112" r="6" fill="#4b5aa8"/>
  <g font-family="ui-monospace,Menlo,monospace" font-size="17" xml:space="preserve">
    <text x="100" y="178"><tspan fill="#8d9bff">&lt;section </tspan><tspan fill="#5ee0f0">class</tspan><tspan fill="#c9d0f0">=</tspan><tspan fill="#ffd479">"hero"</tspan><tspan fill="#8d9bff">&gt;</tspan></text>
    <text x="124" y="210"><tspan fill="#8d9bff">&lt;h1&gt;</tspan><tspan fill="#fff">Build. Launch.</tspan><tspan fill="#8d9bff">&lt;/h1&gt;</tspan></text>
    <text x="124" y="242"><tspan fill="#8d9bff">&lt;a </tspan><tspan fill="#5ee0f0">href</tspan><tspan fill="#c9d0f0">=</tspan><tspan fill="#ffd479">"/services/"</tspan><tspan fill="#8d9bff">&gt;</tspan></text>
    <text x="148" y="274" fill="#fff">Explore</text>
    <text x="124" y="306" fill="#8d9bff">&lt;/a&gt;</text>
    <text x="100" y="338" fill="#8d9bff">&lt;/section&gt;</text>
  </g>
  <rect x="100" y="372" width="140" height="10" rx="5" fill="#3a4aa6"/><rect x="100" y="394" width="220" height="10" rx="5" fill="#2b3a96"/>
  <g filter="url(#s)"><rect x="470" y="210" width="260" height="290" rx="22" fill="#fff"/></g>
  <rect x="494" y="236" width="212" height="110" rx="14" fill="url(#g)"/>
  <path d="M514 322l40-44 34 26 50-52" stroke="#fff" stroke-width="7" stroke-linecap="round" stroke-linejoin="round"/>
  <rect x="494" y="366" width="130" height="14" rx="7" fill="#0f1b4d"/>
  <rect x="494" y="392" width="200" height="9" rx="4.5" fill="#d6dbee"/><rect x="494" y="410" width="160" height="9" rx="4.5" fill="#d6dbee"/>
  <rect x="494" y="438" width="96" height="36" rx="18" fill="#3b4de0"/>
  <g transform="translate(600 440)"><circle r="36" fill="#fff" stroke="#e1e5f1" stroke-width="2"/><circle r="36" fill="#fff"/><path d="M-12 -4l-8 8 8 8M12 -4l8 8-8 8M3 -14l-6 24" stroke="#3b4de0" stroke-width="4" stroke-linecap="round" stroke-linejoin="round"/></g>
</svg>
